<?xml version="1.0" encoding="UTF-8"?>
<svg version="1.1" xmlns="http://www.w3.org/2000/svg" width="338" height="232">
<path d="M0 0 C111.54 0 223.08 0 338 0 C338 76.56 338 153.12 338 232 C226.46 232 114.92 232 0 232 C0 155.44 0 78.88 0 0 Z " fill="#662E74" transform="translate(0,0)"/>
<path d="M0 0 C0.89912109 -0.06251953 1.79824219 -0.12503906 2.72460938 -0.18945312 C9.19921739 -0.34621179 9.19921739 -0.34621179 12.03173828 1.96582031 C13.66052903 4.07893469 14.98027926 6.25056588 16.3125 8.5625 C17.52937627 10.45693405 18.74824836 12.35008708 19.96875 14.2421875 C21.25372331 16.30497696 22.5349111 18.37012887 23.8125 20.4375 C24.76962891 21.97470703 24.76962891 21.97470703 25.74609375 23.54296875 C29.66281808 29.84657212 33.51535418 36.18619415 37.3125 42.5625 C37.35008423 40.70733765 37.35008423 40.70733765 37.38842773 38.81469727 C37.48232253 34.24313287 37.58258629 29.67172682 37.68481445 25.1003418 C37.72823144 23.11860854 37.76990137 21.13683622 37.80981445 19.1550293 C37.86735383 16.3128683 37.93109445 13.47090517 37.99609375 10.62890625 C38.01280624 9.73724258 38.02951874 8.84557892 38.04673767 7.92689514 C38.19862829 1.67637171 38.19862829 1.67637171 39.3125 0.5625 C40.64293625 0.4641279 41.97843344 0.43171408 43.3125 0.4296875 C44.116875 0.42839844 44.92125 0.42710938 45.75 0.42578125 C46.595625 0.42964844 47.44125 0.43351562 48.3125 0.4375 C49.5809375 0.43169922 49.5809375 0.43169922 50.875 0.42578125 C51.679375 0.42707031 52.48375 0.42835937 53.3125 0.4296875 C54.055 0.43081543 54.7975 0.43194336 55.5625 0.43310547 C57.3125 0.5625 57.3125 0.5625 58.3125 1.5625 C58.41275695 3.93011575 58.44868935 6.26857073 58.44189453 8.63671875 C58.44452301 9.74643539 58.44452301 9.74643539 58.44720459 10.87857056 C58.4516231 13.33573723 58.44868513 15.79283253 58.4453125 18.25 C58.44598554 19.95011407 58.44695557 21.65022805 58.44821167 23.3503418 C58.44968864 26.91814081 58.44753411 30.48591483 58.44287109 34.05371094 C58.4371738 38.63738494 58.44045281 43.22100039 58.44644356 47.80467224 C58.45004919 51.31669561 58.44891057 54.82870498 58.44631577 58.34072876 C58.4456465 60.03130093 58.44647489 61.72187436 58.44879532 63.41244507 C58.45132189 65.77109157 58.44748121 68.12964195 58.44189453 70.48828125 C58.44391876 71.19377106 58.44594299 71.89926086 58.44802856 72.62612915 C58.42676271 77.44823729 58.42676271 77.44823729 57.3125 78.5625 C54.21870491 78.8950756 51.1093759 78.88738552 48 78.9375 C46.69772461 78.99357422 46.69772461 78.99357422 45.36914062 79.05078125 C44.1094043 79.06818359 44.1094043 79.06818359 42.82421875 79.0859375 C41.67119263 79.1156665 41.67119263 79.1156665 40.49487305 79.14599609 C35.69005646 77.86134326 33.35629327 72.16964375 30.95703125 68.1328125 C30.33376953 67.08867187 29.71050781 66.04453125 29.06835938 64.96875 C28.42705078 63.8859375 27.78574219 62.803125 27.125 61.6875 C25.86071861 59.56507943 24.59639519 57.4426839 23.33203125 55.3203125 C22.69346191 54.24555664 22.05489258 53.17080078 21.39697266 52.06347656 C17.72229149 45.88445442 14.01479992 39.72499662 10.3125 33.5625 C10.2970388 34.38602211 10.2970388 34.38602211 10.28126526 35.22618103 C10.17342053 40.91971281 10.05880551 46.61307921 9.94018555 52.30639648 C9.89676577 54.43364007 9.85509607 56.5609201 9.81518555 58.68823242 C9.75765293 61.73888151 9.69391033 64.78934589 9.62890625 67.83984375 C9.60383751 69.27577126 9.60383751 69.27577126 9.57826233 70.7407074 C9.55831711 71.62154495 9.53837189 72.50238251 9.51782227 73.40991211 C9.50227798 74.18934677 9.4867337 74.96878143 9.47071838 75.77183533 C9.3125 77.5625 9.3125 77.5625 8.3125 78.5625 C6.98206375 78.6608721 5.64656656 78.69328592 4.3125 78.6953125 C3.508125 78.69660156 2.70375 78.69789063 1.875 78.69921875 C1.029375 78.69535156 0.18375 78.69148438 -0.6875 78.6875 C-1.533125 78.69136719 -2.37875 78.69523437 -3.25 78.69921875 C-4.054375 78.69792969 -4.85875 78.69664062 -5.6875 78.6953125 C-6.43 78.69418457 -7.1725 78.69305664 -7.9375 78.69189453 C-9.6875 78.5625 -9.6875 78.5625 -10.6875 77.5625 C-10.78775695 75.19488425 -10.82368935 72.85642927 -10.81689453 70.48828125 C-10.81864685 69.74847015 -10.82039917 69.00865906 -10.82220459 68.24642944 C-10.8266231 65.78926277 -10.82368513 63.33216747 -10.8203125 60.875 C-10.82098554 59.17488593 -10.82195557 57.47477195 -10.82321167 55.7746582 C-10.82468864 52.20685919 -10.82253411 48.63908517 -10.81787109 45.07128906 C-10.8121738 40.48761506 -10.81545281 35.90399961 -10.82144356 31.32032776 C-10.82504919 27.80830439 -10.82391057 24.29629502 -10.82131577 20.78427124 C-10.8206465 19.09369907 -10.82147489 17.40312564 -10.82379532 15.71255493 C-10.82632189 13.35390843 -10.82248121 10.99535805 -10.81689453 8.63671875 C-10.81891876 7.93122894 -10.82094299 7.22573914 -10.82302856 6.49887085 C-10.78848713 -1.33352304 -6.83779084 0.20633334 0 0 Z " fill="#FCFBFC" transform="translate(101.6875,121.4375)"/>
<path d="M0 0 C0.804375 -0.00128906 1.60875 -0.00257812 2.4375 -0.00390625 C3.283125 -0.00003906 4.12875 0.00382812 5 0.0078125 C6.2684375 0.00201172 6.2684375 0.00201172 7.5625 -0.00390625 C8.366875 -0.00261719 9.17125 -0.00132813 10 0 C10.7425 0.00112793 11.485 0.00225586 12.25 0.00341797 C14 0.1328125 14 0.1328125 15 1.1328125 C15.1584265 3.2036597 15.25124422 5.27959279 15.31640625 7.35546875 C15.35830078 8.61552734 15.40019531 9.87558594 15.44335938 11.17382812 C15.48317596 12.51431986 15.52288814 13.8548147 15.5625 15.1953125 C15.60568042 16.53972773 15.64929456 17.8841291 15.69335938 19.22851562 C15.79985358 22.5298359 15.9018646 25.83123486 16 29.1328125 C22.40341699 21.17805222 28.77218806 13.20410783 34.96435547 5.08325195 C37.91059639 1.22221611 37.91059639 1.22221611 39 0.1328125 C40.70772358 0.04567419 42.41898649 0.02581243 44.12890625 0.03515625 C45.68061523 0.03999023 45.68061523 0.03999023 47.26367188 0.04492188 C48.35228516 0.05330078 49.44089844 0.06167969 50.5625 0.0703125 C52.2012207 0.07708008 52.2012207 0.07708008 53.87304688 0.08398438 C56.58208495 0.09581424 59.29101599 0.11229707 62 0.1328125 C60.74208088 3.60623885 59.325205 6.28813253 57.0234375 9.171875 C56.43820313 9.91219971 55.85296875 10.65252441 55.25 11.4152832 C54.63125 12.18831787 54.0125 12.96135254 53.375 13.7578125 C52.11123716 15.36790746 50.84821387 16.97858317 49.5859375 18.58984375 C47.90818846 20.72078802 46.22822217 22.84908706 44.52832031 24.96240234 C43.33701032 26.44461361 42.16734176 27.94415196 41 29.4453125 C40.360625 30.24582031 39.72125 31.04632813 39.0625 31.87109375 C37.73165686 34.06452333 37.73165686 34.06452333 38.59326172 36.25805664 C40.5313523 40.21866348 42.95868764 43.75603518 45.4453125 47.390625 C46.53265572 49.00123212 47.61989214 50.61191135 48.70703125 52.22265625 C50.42107079 54.75008815 52.13735561 57.27596078 53.85595703 59.80029297 C55.51661074 62.24315582 57.16884848 64.69154402 58.8203125 67.140625 C59.33900909 67.89691193 59.85770569 68.65319885 60.39212036 69.43240356 C60.86616302 70.13678558 61.34020569 70.8411676 61.82861328 71.56689453 C62.4591008 72.49358444 62.4591008 72.49358444 63.10232544 73.43899536 C64 75.1328125 64 75.1328125 64 78.1328125 C58.43713202 78.54912026 52.89526308 78.78125755 47.31640625 78.65625 C46.39802979 78.63739746 45.47965332 78.61854492 44.53344727 78.59912109 C41.46453831 78.03425494 40.08529826 76.98710799 37.875 74.8203125 C36.87705821 72.94502612 35.92794963 71.04370137 35 69.1328125 C34.00106404 67.53548179 32.98207675 65.95060871 31.94921875 64.375 C29.73178344 60.98909002 27.52657763 57.59868686 25.37890625 54.16796875 C24.9207251 53.439729 24.46254395 52.71148926 23.99047852 51.96118164 C23 50.1328125 23 50.1328125 23 48.1328125 C22.21625 48.9165625 21.4325 49.7003125 20.625 50.5078125 C19.08333333 52.04947917 17.54166667 53.59114583 16 55.1328125 C15.64587926 57.44147653 15.64587926 57.44147653 15.62109375 60.10546875 C15.58693359 61.08708984 15.55277344 62.06871094 15.51757812 63.08007812 C15.49115234 64.10810547 15.46472656 65.13613281 15.4375 66.1953125 C15.37782739 68.22799001 15.31424165 70.26055773 15.24609375 72.29296875 C15.22216553 73.19668213 15.1982373 74.10039551 15.17358398 75.03149414 C15 77.1328125 15 77.1328125 14 78.1328125 C12.66956375 78.2311846 11.33406656 78.26359842 10 78.265625 C9.195625 78.26691406 8.39125 78.26820313 7.5625 78.26953125 C6.716875 78.26566406 5.87125 78.26179688 5 78.2578125 C4.154375 78.26167969 3.30875 78.26554687 2.4375 78.26953125 C1.633125 78.26824219 0.82875 78.26695312 0 78.265625 C-0.7425 78.26449707 -1.485 78.26336914 -2.25 78.26220703 C-4 78.1328125 -4 78.1328125 -5 77.1328125 C-5.10025695 74.76519675 -5.13618935 72.42674177 -5.12939453 70.05859375 C-5.13114685 69.31878265 -5.13289917 68.57897156 -5.13470459 67.81674194 C-5.1391231 65.35957527 -5.13618513 62.90247997 -5.1328125 60.4453125 C-5.13348554 58.74519843 -5.13445557 57.04508445 -5.13571167 55.3449707 C-5.13718864 51.77717169 -5.13503411 48.20939767 -5.13037109 44.64160156 C-5.1246738 40.05792756 -5.12795281 35.47431211 -5.13394356 30.89064026 C-5.13754919 27.37861689 -5.13641057 23.86660752 -5.13381577 20.35458374 C-5.1331465 18.66401157 -5.13397489 16.97343814 -5.13629532 15.28286743 C-5.13882189 12.92422093 -5.13498121 10.56567055 -5.12939453 8.20703125 C-5.13141876 7.50154144 -5.13344299 6.79605164 -5.13552856 6.06918335 C-5.10879724 0.00776076 -5.10879724 0.00776076 0 0 Z " fill="#FDFCFD" transform="translate(182,121.8671875)"/>
<path d="M0 0 C0.66 0 1.32 0 2 0 C4.31 6.93 6.62 13.86 9 21 C16.59 21.33 24.18 21.66 32 22 C26.375 27.625 26.375 27.625 23.66796875 29.45703125 C23.09755859 29.84697266 22.52714844 30.23691406 21.93945312 30.63867188 C21.36130859 31.02603516 20.78316406 31.41339844 20.1875 31.8125 C19.2912793 32.42254883 19.2912793 32.42254883 18.37695312 33.04492188 C16.92125436 34.03479703 15.46108826 35.01809735 14 36 C14.18175781 36.55985596 14.36351562 37.11971191 14.55078125 37.6965332 C15.37170103 40.23375418 16.18591791 42.77307728 17 45.3125 C17.28617188 46.19357422 17.57234375 47.07464844 17.8671875 47.98242188 C18.13789063 48.82998047 18.40859375 49.67753906 18.6875 50.55078125 C18.93886719 51.33106689 19.19023437 52.11135254 19.44921875 52.9152832 C20 55 20 55 20 58 C14.39649109 56.13559722 10.44842017 52.50042624 5.9375 48.80078125 C3.22899551 46.80889625 3.22899551 46.80889625 0.57421875 46.9140625 C-3.08110735 48.45606653 -6.04006797 50.67150409 -9.1875 53.0625 C-15.75511596 58 -15.75511596 58 -18 58 C-17.57874003 55.96391016 -17.14508238 53.92998032 -16.66796875 51.90625 C-16.18210599 49.79232078 -15.75488551 47.66465233 -15.36328125 45.53125 C-13.32538311 36.22650532 -13.32538311 36.22650532 -9.5390625 32.72265625 C-6.75516806 30.97986206 -3.93130858 29.4780401 -1 28 C0.41641796 27.05085395 1.81612511 26.07563818 3.1875 25.0625 C4.5796875 24.0415625 4.5796875 24.0415625 6 23 C5.38388165 18.68068613 4.35761422 14.74791225 2.9375 10.625 C2.39416016 9.03558594 2.39416016 9.03558594 1.83984375 7.4140625 C1.42412109 6.21910156 1.42412109 6.21910156 1 5 C0.57847656 6.21558594 0.15695313 7.43117188 -0.27734375 8.68359375 C-0.83057808 10.26828192 -1.38397172 11.85291448 -1.9375 13.4375 C-2.21529297 14.23994141 -2.49308594 15.04238281 -2.77929688 15.86914062 C-3.04677734 16.63291016 -3.31425781 17.39667969 -3.58984375 18.18359375 C-3.83597412 18.89056396 -4.08210449 19.59753418 -4.33569336 20.32592773 C-5 22 -5 22 -6 23 C-7.41327947 23.15620555 -8.8335459 23.25056173 -10.25390625 23.31640625 C-11.10791016 23.35830078 -11.96191406 23.40019531 -12.84179688 23.44335938 C-14.18854492 23.50233398 -14.18854492 23.50233398 -15.5625 23.5625 C-16.46419922 23.60568359 -17.36589844 23.64886719 -18.29492188 23.69335938 C-20.52978485 23.79978142 -22.76476308 23.90179988 -25 24 C-24.34 24.99 -23.68 25.98 -23 27 C-26.65316671 25.75023244 -27.78065836 25.32901247 -30 22 C-22.41 21.67 -14.82 21.34 -7 21 C-4.69 14.07 -2.38 7.14 0 0 Z " fill="#7B4B87" transform="translate(168,32)"/>
<path d="M0 0 C0.66 0 1.32 0 2 0 C4.31 6.93 6.62 13.86 9 21 C16.59 21.33 24.18 21.66 32 22 C29.525 24.475 29.525 24.475 27 27 C26.34 26.67 25.68 26.34 25 26 C25.66 25.34 26.32 24.68 27 24 C21.36956044 23.32056529 17.20682933 23.33217882 12.5078125 26.74609375 C11.0265942 27.95207222 9.5660344 29.18378091 8.125 30.4375 C6.5664078 31.7333404 5.00650821 33.02760992 3.4453125 34.3203125 C2.69282227 34.95356445 1.94033203 35.58681641 1.16503906 36.23925781 C-0.75900044 37.80400442 -2.70277797 39.23195848 -4.7578125 40.6171875 C-11.4726317 44.95727457 -11.4726317 44.95727457 -14.6875 51.9375 C-14.80917198 53.29020617 -14.91688578 54.64437834 -15 56 C-15.33 56.66 -15.66 57.32 -16 58 C-16.66 58 -17.32 58 -18 58 C-17.57874003 55.96391016 -17.14508238 53.92998032 -16.66796875 51.90625 C-16.18210599 49.79232078 -15.75488551 47.66465233 -15.36328125 45.53125 C-13.32538311 36.22650532 -13.32538311 36.22650532 -9.5390625 32.72265625 C-6.75516806 30.97986206 -3.93130858 29.4780401 -1 28 C0.41641796 27.05085395 1.81612511 26.07563818 3.1875 25.0625 C4.5796875 24.0415625 4.5796875 24.0415625 6 23 C5.38388165 18.68068613 4.35761422 14.74791225 2.9375 10.625 C2.39416016 9.03558594 2.39416016 9.03558594 1.83984375 7.4140625 C1.42412109 6.21910156 1.42412109 6.21910156 1 5 C0.57847656 6.21558594 0.15695313 7.43117188 -0.27734375 8.68359375 C-0.83057808 10.26828192 -1.38397172 11.85291448 -1.9375 13.4375 C-2.21529297 14.23994141 -2.49308594 15.04238281 -2.77929688 15.86914062 C-3.04677734 16.63291016 -3.31425781 17.39667969 -3.58984375 18.18359375 C-3.83597412 18.89056396 -4.08210449 19.59753418 -4.33569336 20.32592773 C-5 22 -5 22 -6 23 C-7.41327947 23.15620555 -8.8335459 23.25056173 -10.25390625 23.31640625 C-11.10791016 23.35830078 -11.96191406 23.40019531 -12.84179688 23.44335938 C-14.18854492 23.50233398 -14.18854492 23.50233398 -15.5625 23.5625 C-16.46419922 23.60568359 -17.36589844 23.64886719 -18.29492188 23.69335938 C-20.52978485 23.79978142 -22.76476308 23.90179988 -25 24 C-24.34 24.99 -23.68 25.98 -23 27 C-26.65316671 25.75023244 -27.78065836 25.32901247 -30 22 C-22.41 21.67 -14.82 21.34 -7 21 C-4.69 14.07 -2.38 7.14 0 0 Z " fill="#8A5E94" transform="translate(168,32)"/>
<path d="M0 0 C3.12918639 1.56459319 3.57526452 4.61926309 4.6875 7.75 C5.37392578 9.59851563 5.37392578 9.59851563 6.07421875 11.484375 C7.48208409 16.83069907 7.48208409 16.83069907 6 20 C3.61197011 22.26262842 0.98380693 24.05567074 -1.75 25.875 C-2.46671875 26.38546875 -3.1834375 26.8959375 -3.921875 27.421875 C-9.18607109 31.00230249 -9.18607109 31.00230249 -12.76171875 30.9921875 C-15.1210933 29.94632165 -17.01846622 28.82670995 -19.0625 27.25 C-19.71347656 26.76015625 -20.36445313 26.2703125 -21.03515625 25.765625 C-23 24 -23 24 -27 19 C-16.605 18.505 -16.605 18.505 -6 18 C-4.02 12.06 -2.04 6.12 0 0 Z " fill="#754281" transform="translate(168,36)"/>
<path d="M0 0 C0.66 0 1.32 0 2 0 C4.31 6.93 6.62 13.86 9 21 C16.59 21.33 24.18 21.66 32 22 C29.525 24.475 29.525 24.475 27 27 C26.34 26.67 25.68 26.34 25 26 C25.66 25.34 26.32 24.68 27 24 C26.31292969 24 25.62585938 24 24.91796875 24 C18.61197917 24 12.30598958 24 6 24 C5.9175 23.0925 5.835 22.185 5.75 21.25 C4.9731113 15.62625347 2.88196771 10.33078295 1 5 C0.57847656 6.21558594 0.15695313 7.43117188 -0.27734375 8.68359375 C-0.83057808 10.26828192 -1.38397172 11.85291448 -1.9375 13.4375 C-2.21529297 14.23994141 -2.49308594 15.04238281 -2.77929688 15.86914062 C-3.04677734 16.63291016 -3.31425781 17.39667969 -3.58984375 18.18359375 C-3.83597412 18.89056396 -4.08210449 19.59753418 -4.33569336 20.32592773 C-5 22 -5 22 -6 23 C-7.41327947 23.15620555 -8.8335459 23.25056173 -10.25390625 23.31640625 C-11.10791016 23.35830078 -11.96191406 23.40019531 -12.84179688 23.44335938 C-14.18854492 23.50233398 -14.18854492 23.50233398 -15.5625 23.5625 C-16.46419922 23.60568359 -17.36589844 23.64886719 -18.29492188 23.69335938 C-20.52978485 23.79978142 -22.76476308 23.90179988 -25 24 C-24.34 24.99 -23.68 25.98 -23 27 C-26.65316671 25.75023244 -27.78065836 25.32901247 -30 22 C-22.41 21.67 -14.82 21.34 -7 21 C-4.69 14.07 -2.38 7.14 0 0 Z " fill="#DBCEDE" transform="translate(168,32)"/>
<path d="M0 0 C0.66 0.33 1.32 0.66 2 1 C1.175 1.7425 0.35 2.485 -0.5 3.25 C-3.44844853 5.87387385 -3.44844853 5.87387385 -3 10 C-1.35 8.68 0.3 7.36 2 6 C2.66 6.33 3.32 6.66 4 7 C3.30132812 7.47308594 2.60265625 7.94617188 1.8828125 8.43359375 C-4.53817044 12.93944955 -4.53817044 12.93944955 -7.5625 19.875 C-7.7180845 21.24893079 -7.8658077 22.62381513 -8 24 C-8.33 24.66 -8.66 25.32 -9 26 C-9.66 26 -10.32 26 -11 26 C-10.37632607 22.98557601 -9.70873607 19.99511063 -9 17 C-8.72027344 15.80890625 -8.44054687 14.6178125 -8.15234375 13.390625 C-7.83394531 12.14796875 -7.51554688 10.9053125 -7.1875 9.625 C-6.89230469 8.44164063 -6.59710938 7.25828125 -6.29296875 6.0390625 C-4.77364292 2.46795828 -3.55300926 1.4613633 0 0 Z " fill="#D7C9DB" transform="translate(161,64)"/>
<path d="M0 0 C0.66 0 1.32 0 2 0 C2.83698386 2.45714547 3.66972424 4.91558857 4.5 7.375 C4.85771484 8.42300781 4.85771484 8.42300781 5.22265625 9.4921875 C7 14.7734375 7 14.7734375 7 17 C6.34 17 5.68 17 5 17 C3.68 13.04 2.36 9.08 1 5 C0.34 6.65 -0.32 8.3 -1 10 C-1.66 10 -2.32 10 -3 10 C-2.01 6.7 -1.02 3.4 0 0 Z " fill="#C9B6CE" transform="translate(168,32)"/>
<path d="M0 0 C2 1 2 1 2.77783203 2.81005859 C3.01872559 3.58172363 3.25961914 4.35338867 3.5078125 5.1484375 C3.77207031 5.98890625 4.03632813 6.829375 4.30859375 7.6953125 C4.57800781 8.57960938 4.84742188 9.46390625 5.125 10.375 C5.40214844 11.2515625 5.67929688 12.128125 5.96484375 13.03125 C8 19.58786176 8 19.58786176 8 23 C4.34683329 21.75023244 3.21934164 21.32901247 1 18 C3.475 18.99 3.475 18.99 6 20 C5.566875 18.80761719 5.13375 17.61523438 4.6875 16.38671875 C4.12475139 14.8204018 3.56226502 13.25399061 3 11.6875 C2.71382812 10.90181641 2.42765625 10.11613281 2.1328125 9.30664062 C1.86210937 8.54931641 1.59140625 7.79199219 1.3125 7.01171875 C1.06113281 6.31522217 0.80976563 5.61872559 0.55078125 4.90112305 C0 3 0 3 0 0 Z " fill="#CFBED3" transform="translate(180,67)"/>
<path d="M0 0 C0.66 0.66 1.32 1.32 2 2 C1.525625 3.051875 1.05125 4.10375 0.5625 5.1875 C-0.69323741 8.10175851 -1.52234381 10.84746914 -2 14 C-2.66 14 -3.32 14 -4 14 C-3.00956295 9.16371695 -2.04301154 4.52381127 0 0 Z " fill="#DDD0E0" transform="translate(154,76)"/>
</svg>
